<svg width="1440" height="368" viewBox="0 0 1440 368" fill="none" xmlns="http://www.w3.org/2000/svg">
<rect width="1440" height="367.5" fill="#262A4E"/>
<circle cx="92.5" cy="62.5" r="2.5" fill="white" fill-opacity="0.9"/>
<circle cx="371.5" cy="257.5" r="2.5" fill="white" fill-opacity="0.9"/>
<circle cx="647.5" cy="33.5" r="2.5" fill="white" fill-opacity="0.9"/>
<circle cx="380.5" cy="98.5" r="2.5" fill="white" fill-opacity="0.9"/>
<circle cx="659.5" cy="293.5" r="2.5" fill="white" fill-opacity="0.9"/>
<circle cx="935.5" cy="69.5" r="2.5" fill="white" fill-opacity="0.9"/>
<circle cx="502.5" cy="61.5" r="2.5" fill="white" fill-opacity="0.5"/>
<circle cx="781.5" cy="256.5" r="2.5" fill="white" fill-opacity="0.5"/>
<circle cx="1057.5" cy="32.5" r="2.5" fill="white" fill-opacity="0.5"/>
<circle cx="668.5" cy="134.5" r="2.5" fill="white" fill-opacity="0.9"/>
<circle cx="947.5" cy="329.5" r="2.5" fill="white" fill-opacity="0.9"/>
<circle cx="1223.5" cy="105.5" r="2.5" fill="white" fill-opacity="0.9"/>
<circle cx="790.5" cy="97.5" r="2.5" fill="white" fill-opacity="0.5"/>
<circle cx="1069.5" cy="292.5" r="2.5" fill="white" fill-opacity="0.5"/>
<circle cx="1345.5" cy="68.5" r="2.5" fill="white" fill-opacity="0.5"/>
<circle opacity="0.3" cx="814.5" cy="42.5" r="2.5" fill="white" fill-opacity="0.5"/>
<circle opacity="0.3" cx="1093.5" cy="237.5" r="2.5" fill="white" fill-opacity="0.5"/>
<circle opacity="0.3" cx="1369.5" cy="13.5" r="2.5" fill="white" fill-opacity="0.5"/>
<circle cx="941.5" cy="139.5" r="2.5" fill="white" fill-opacity="0.9"/>
<circle cx="1220.5" cy="334.5" r="2.5" fill="white" fill-opacity="0.9"/>
</svg>
