<svg width="47" height="47" viewBox="0 0 47 47" fill="none" xmlns="http://www.w3.org/2000/svg">
<path d="M23.5 44.75C35.2364 44.75 44.75 35.2364 44.75 23.5C44.75 11.7636 35.2364 2.25 23.5 2.25C11.7636 2.25 2.25 11.7636 2.25 23.5C2.25 35.2364 11.7636 44.75 23.5 44.75Z" stroke="white" stroke-width="4" stroke-linecap="round" stroke-linejoin="round"/>
<path d="M27.75 20.3125V15" stroke="white" stroke-width="4" stroke-linecap="round" stroke-linejoin="round"/>
<path d="M19.25 20.3125V15" stroke="white" stroke-width="4" stroke-linecap="round" stroke-linejoin="round"/>
<path d="M23.5 32C25.7543 32 27.9163 31.1045 29.5104 29.5104C31.1045 27.9163 32 25.7543 32 23.5V20.3125H15V23.5C15 25.7543 15.8955 27.9163 17.4896 29.5104C19.0837 31.1045 21.2457 32 23.5 32Z" stroke="white" stroke-width="4" stroke-linecap="round" stroke-linejoin="round"/>
<path d="M23.5 44.75V32" stroke="white" stroke-width="4" stroke-linecap="round" stroke-linejoin="round"/>
</svg>
